<svg width="119" height="24" viewBox="0 0 119 24" fill="none" xmlns="http://www.w3.org/2000/svg">
<mask id="mask0_440_8279" style="mask-type:luminance" maskUnits="userSpaceOnUse" x="0" y="0" width="119" height="24">
<path d="M118.617 0H0.666748V24H118.617V0Z" fill="white"/>
</mask>
<g mask="url(#mask0_440_8279)">
<mask id="mask1_440_8279" style="mask-type:luminance" maskUnits="userSpaceOnUse" x="0" y="0" width="20" height="24">
<path d="M19.1887 0H0.666748V24H19.1887V0Z" fill="white"/>
</mask>
<g mask="url(#mask1_440_8279)">
<path d="M11.711 0C10.8754 0 10.1282 0.370553 9.62142 0.957065C9.11591 1.5178 8.3846 1.87118 7.56983 1.87118C6.75514 1.87118 6.00544 1.51044 5.49869 0.937433C4.99316 0.361968 4.25328 0 3.4275 0C1.90234 0 0.666748 1.23682 0.666748 2.76075C0.666748 4.28469 1.90356 5.52151 3.4275 5.52151C4.25328 5.52151 4.99316 5.15955 5.49992 4.58408C6.00667 4.0123 6.74532 3.65279 7.56983 3.65279C8.39441 3.65279 9.13429 4.01107 9.64103 4.58408C10.1478 5.15832 10.8877 5.52151 11.7135 5.52151C13.2386 5.52151 14.4742 4.28469 14.4742 2.76075C14.4742 1.23682 13.2362 0 11.711 0Z" fill="url(#paint0_linear_440_8279)"/>
<path d="M11.711 0C10.8754 0 10.1282 0.370553 9.62142 0.957065C9.11591 1.5178 8.3846 1.87118 7.56983 1.87118C6.75514 1.87118 6.00544 1.51044 5.49869 0.937433C4.99316 0.361968 4.25328 0 3.4275 0C1.90234 0 0.666748 1.23682 0.666748 2.76075C0.666748 4.28469 1.90356 5.52151 3.4275 5.52151C4.25328 5.52151 4.99316 5.15955 5.49992 4.58408C6.00667 4.0123 6.74532 3.65279 7.56983 3.65279C8.39441 3.65279 9.13429 4.01107 9.64103 4.58408C10.1478 5.15832 10.8877 5.52151 11.7135 5.52151C13.2386 5.52151 14.4742 4.28469 14.4742 2.76075C14.4742 1.23682 13.2362 0 11.711 0Z" fill="black" fill-opacity="0.2"/>
<path d="M15.8976 4.75708C15.0619 4.75708 14.3147 5.12764 13.808 5.71415C13.3024 6.27489 12.5712 6.62824 11.7564 6.62824C10.9417 6.62824 10.192 6.26752 9.68518 5.69451C9.17844 5.12028 8.43856 4.75708 7.61282 4.75708C6.08764 4.75708 4.85204 5.9939 4.85204 7.51782C4.85204 9.04175 6.08887 10.2786 7.61282 10.2786C8.43856 10.2786 9.17844 9.91666 9.68518 9.34114C10.192 8.76939 10.9306 8.40987 11.7552 8.40987C12.5797 8.40987 13.3196 8.76815 13.8264 9.34114C14.3331 9.91542 15.073 10.2786 15.8988 10.2786C17.424 10.2786 18.6595 9.04175 18.6595 7.51782C18.6595 5.9939 17.4227 4.75708 15.8988 4.75708H15.8976Z" fill="url(#paint1_linear_440_8279)"/>
<path d="M15.8976 4.75708C15.0619 4.75708 14.3147 5.12764 13.808 5.71415C13.3024 6.27489 12.5712 6.62824 11.7564 6.62824C10.9417 6.62824 10.192 6.26752 9.68518 5.69451C9.17844 5.12028 8.43856 4.75708 7.61282 4.75708C6.08764 4.75708 4.85204 5.9939 4.85204 7.51782C4.85204 9.04175 6.08887 10.2786 7.61282 10.2786C8.43856 10.2786 9.17844 9.91666 9.68518 9.34114C10.192 8.76939 10.9306 8.40987 11.7552 8.40987C12.5797 8.40987 13.3196 8.76815 13.8264 9.34114C14.3331 9.91542 15.073 10.2786 15.8988 10.2786C17.424 10.2786 18.6595 9.04175 18.6595 7.51782C18.6595 5.9939 17.4227 4.75708 15.8988 4.75708H15.8976Z" fill="black" fill-opacity="0.2"/>
<path d="M5.49868 14.0959C6.00543 13.5241 6.74409 13.1646 7.56866 13.1646C8.39317 13.1646 9.13305 13.5229 9.6398 14.0959C10.1465 14.6701 10.8864 15.0333 11.7122 15.0333C13.2374 15.0333 14.473 13.7965 14.473 12.2726C14.473 10.7486 13.2362 9.51182 11.7122 9.51182C10.8766 9.51182 10.1294 9.88238 9.62265 10.4689C9.11714 11.0296 8.38583 11.383 7.57106 11.383C6.75636 11.383 6.00666 11.0222 5.49991 10.4493C5.30959 10.233 5.08691 10.0476 4.83978 9.89952C4.79929 9.87621 4.76125 9.85413 4.71953 9.83205L4.6999 9.82224C4.66555 9.80503 4.63119 9.78666 4.5956 9.77068C4.58579 9.76704 4.57475 9.76087 4.56248 9.756C4.53058 9.74126 4.49867 9.72775 4.46677 9.71424C4.45451 9.70814 4.43978 9.70444 4.42628 9.69834C4.39683 9.6873 4.36616 9.67502 4.33548 9.66398C4.31953 9.65781 4.30603 9.65411 4.29008 9.648C4.26063 9.6382 4.23119 9.62963 4.20174 9.62099C4.18456 9.61735 4.16861 9.61118 4.15143 9.60631C4.12321 9.59891 4.09254 9.59034 4.06431 9.5854C4.04714 9.58176 4.02873 9.57683 4.01155 9.57312C3.98333 9.56702 3.95266 9.56208 3.92321 9.55598C3.9048 9.55351 3.8864 9.54864 3.86799 9.54618C3.83855 9.54247 3.80787 9.53754 3.77842 9.5339C3.76002 9.53143 3.74284 9.5302 3.72443 9.5265C3.6913 9.5241 3.65941 9.52039 3.62504 9.51792C3.60909 9.51792 3.59315 9.51546 3.57842 9.51422C3.38818 9.50435 3.19742 9.51381 3.00909 9.54247C2.59804 9.60508 2.21645 9.75964 1.88515 9.98174C1.84834 10.0063 1.81276 10.0321 1.77718 10.059C1.67043 10.1388 1.56981 10.2259 1.47656 10.3192C1.32074 10.475 1.18331 10.6504 1.06675 10.8394C0.951407 11.0296 0.858154 11.2345 0.791897 11.4505C0.710914 11.7106 0.667969 11.9855 0.667969 12.2726C0.667969 12.3228 0.669196 12.3719 0.67165 12.4223C0.67165 12.4382 0.674104 12.4542 0.675331 12.4689C0.677785 12.5033 0.679012 12.5364 0.68392 12.5683C0.685147 12.5867 0.687601 12.6038 0.691282 12.6222C0.694963 12.6517 0.699871 12.6836 0.703552 12.7131C0.706006 12.7315 0.710914 12.7498 0.713368 12.7683C0.719503 12.7977 0.724411 12.8284 0.730546 12.8566C0.734227 12.8738 0.739135 12.8922 0.742816 12.9094C0.750178 12.9388 0.75754 12.9695 0.766129 12.999C0.76981 13.0149 0.774718 13.0321 0.780853 13.0481C0.789442 13.0799 0.799258 13.1094 0.809074 13.1413C0.812755 13.156 0.81889 13.1695 0.823798 13.1842C0.834842 13.2174 0.848338 13.2492 0.859382 13.2811C0.863063 13.2922 0.86797 13.3044 0.874106 13.3155C0.88883 13.3511 0.903554 13.3867 0.920732 13.4222C0.923186 13.4297 0.926866 13.437 0.930548 13.4431C1.09587 13.7936 1.33288 14.1054 1.62626 14.3585C2.187 14.864 2.54037 15.5953 2.54037 16.41C2.54037 17.2247 2.17964 17.9744 1.60662 18.4812C1.03239 18.9879 0.669196 19.7278 0.669196 20.5536C0.669196 22.0788 1.90601 23.3144 3.42995 23.3144C4.95389 23.3144 6.19071 22.0775 6.19071 20.5536C6.19071 19.7278 5.82875 18.9879 5.25328 18.4812C4.6815 17.9744 4.32198 17.2358 4.32198 16.4113C4.32198 15.5867 4.68027 14.8468 5.25328 14.3401" fill="url(#paint2_linear_440_8279)"/>
<path d="M5.49868 14.0959C6.00543 13.5241 6.74409 13.1646 7.56866 13.1646C8.39317 13.1646 9.13305 13.5229 9.6398 14.0959C10.1465 14.6701 10.8864 15.0333 11.7122 15.0333C13.2374 15.0333 14.473 13.7965 14.473 12.2726C14.473 10.7486 13.2362 9.51182 11.7122 9.51182C10.8766 9.51182 10.1294 9.88238 9.62265 10.4689C9.11714 11.0296 8.38583 11.383 7.57106 11.383C6.75636 11.383 6.00666 11.0222 5.49991 10.4493C5.30959 10.233 5.08691 10.0476 4.83978 9.89952C4.79929 9.87621 4.76125 9.85413 4.71953 9.83205L4.6999 9.82224C4.66555 9.80503 4.63119 9.78666 4.5956 9.77068C4.58579 9.76704 4.57475 9.76087 4.56248 9.756C4.53058 9.74126 4.49867 9.72775 4.46677 9.71424C4.45451 9.70814 4.43978 9.70444 4.42628 9.69834C4.39683 9.6873 4.36616 9.67502 4.33548 9.66398C4.31953 9.65781 4.30603 9.65411 4.29008 9.648C4.26063 9.6382 4.23119 9.62963 4.20174 9.62099C4.18456 9.61735 4.16861 9.61118 4.15143 9.60631C4.12321 9.59891 4.09254 9.59034 4.06431 9.5854C4.04714 9.58176 4.02873 9.57683 4.01155 9.57312C3.98333 9.56702 3.95266 9.56208 3.92321 9.55598C3.9048 9.55351 3.8864 9.54864 3.86799 9.54618C3.83855 9.54247 3.80787 9.53754 3.77842 9.5339C3.76002 9.53143 3.74284 9.5302 3.72443 9.5265C3.6913 9.5241 3.65941 9.52039 3.62504 9.51792C3.60909 9.51792 3.59315 9.51546 3.57842 9.51422C3.38818 9.50435 3.19742 9.51381 3.00909 9.54247C2.59804 9.60508 2.21645 9.75964 1.88515 9.98174C1.84834 10.0063 1.81276 10.0321 1.77718 10.059C1.67043 10.1388 1.56981 10.2259 1.47656 10.3192C1.32074 10.475 1.18331 10.6504 1.06675 10.8394C0.951407 11.0296 0.858154 11.2345 0.791897 11.4505C0.710914 11.7106 0.667969 11.9855 0.667969 12.2726C0.667969 12.3228 0.669196 12.3719 0.67165 12.4223C0.67165 12.4382 0.674104 12.4542 0.675331 12.4689C0.677785 12.5033 0.679012 12.5364 0.68392 12.5683C0.685147 12.5867 0.687601 12.6038 0.691282 12.6222C0.694963 12.6517 0.699871 12.6836 0.703552 12.7131C0.706006 12.7315 0.710914 12.7498 0.713368 12.7683C0.719503 12.7977 0.724411 12.8284 0.730546 12.8566C0.734227 12.8738 0.739135 12.8922 0.742816 12.9094C0.750178 12.9388 0.75754 12.9695 0.766129 12.999C0.76981 13.0149 0.774718 13.0321 0.780853 13.0481C0.789442 13.0799 0.799258 13.1094 0.809074 13.1413C0.812755 13.156 0.81889 13.1695 0.823798 13.1842C0.834842 13.2174 0.848338 13.2492 0.859382 13.2811C0.863063 13.2922 0.86797 13.3044 0.874106 13.3155C0.88883 13.3511 0.903554 13.3867 0.920732 13.4222C0.923186 13.4297 0.926866 13.437 0.930548 13.4431C1.09587 13.7936 1.33288 14.1054 1.62626 14.3585C2.187 14.864 2.54037 15.5953 2.54037 16.41C2.54037 17.2247 2.17964 17.9744 1.60662 18.4812C1.03239 18.9879 0.669196 19.7278 0.669196 20.5536C0.669196 22.0788 1.90601 23.3144 3.42995 23.3144C4.95389 23.3144 6.19071 22.0775 6.19071 20.5536C6.19071 19.7278 5.82875 18.9879 5.25328 18.4812C4.6815 17.9744 4.32198 17.2358 4.32198 16.4113C4.32198 15.5867 4.68027 14.8468 5.25328 14.3401" fill="black" fill-opacity="0.2"/>
</g>
<path d="M26.0345 11.542H27.2112C28.1013 11.542 28.4633 11.0895 28.4633 10.3955C28.4633 9.68651 28.1013 9.23393 27.2112 9.23393H26.0345V11.542ZM31.4805 10.3955C31.4805 12.2511 30.1982 13.8954 27.4979 13.8954H26.0345V17.4858H23.0777V6.85039H27.4979C30.1379 6.85039 31.4805 8.34388 31.4805 10.3955ZM38.2953 10.4257C38.2953 9.76193 37.888 9.32445 37.0885 9.32445H35.6251V11.542H37.0885C37.888 11.542 38.2953 11.1498 38.2953 10.4257ZM32.6683 6.85039H37.3298C39.9698 6.85039 41.2974 8.35896 41.2974 10.2598C41.2974 11.6476 40.5431 12.8545 38.9591 13.3372L41.3577 17.4858H38.0539L35.9419 13.5635H35.6251V17.4858H32.6683V6.85039ZM53.1869 12.1304C53.1869 15.3286 50.7581 17.5914 47.741 17.5914C44.7238 17.5914 42.2799 15.3286 42.2799 12.1304C42.2799 8.93222 44.7238 6.68445 47.741 6.68445C50.7732 6.68445 53.1869 8.93222 53.1869 12.1304ZM45.2971 12.1304C45.2971 13.7747 46.2022 14.8458 47.741 14.8458C49.2646 14.8458 50.1849 13.7747 50.1849 12.1304C50.1849 10.4559 49.2646 9.39988 47.741 9.39988C46.2022 9.39988 45.2971 10.4559 45.2971 12.1304ZM54.5161 17.4858V6.85039H58.0914L60.7616 13.7596L63.3714 6.85039H66.9316V17.4858H63.9748V11.6175L61.9684 17.4858H59.4944L57.4729 11.5722V17.4858H54.5161ZM75.4185 6.85039V9.21885H71.5717V10.9537H74.9659V13.2015H71.5717V15.1174H75.4185V17.4858H68.6148V6.85039H75.4185ZM83.7739 6.85039H86.7308V17.4858H83.7739L79.8366 11.542V17.4858H76.8798V6.85039H79.8366L83.7739 12.8696V6.85039ZM95.7163 17.4858L95.1431 15.751H91.3717L90.7984 17.4858H87.6908L91.5678 6.85039H94.9771L98.8391 17.4858H95.7163ZM94.4039 13.4881L93.2574 10.0486L92.126 13.4881H94.4039ZM104.011 6.85039C107.406 6.85039 109.563 9.03782 109.563 12.1606C109.563 15.238 107.406 17.4858 104.011 17.4858H99.8025V6.85039H104.011ZM102.759 14.876H103.785C105.49 14.876 106.561 13.9105 106.561 12.1606C106.561 10.3955 105.49 9.41496 103.785 9.41496H102.759V14.876ZM117.7 6.85039V9.21885H113.853V10.9537H117.247V13.2015H113.853V15.1174H117.7V17.4858H110.896V6.85039H117.7Z" fill="white"/>
</g>
<defs>
<linearGradient id="paint0_linear_440_8279" x1="1.09515" y1="-3.35881e-07" x2="18.842" y2="0.460759" gradientUnits="userSpaceOnUse">
<stop stop-color="#F8F5B1"/>
<stop offset="0.345" stop-color="#C6A1FD"/>
<stop offset="0.675" stop-color="#89FDD6"/>
<stop offset="1" stop-color="#9294F0"/>
</linearGradient>
<linearGradient id="paint1_linear_440_8279" x1="1.09514" y1="-9.50345e-06" x2="18.842" y2="0.460749" gradientUnits="userSpaceOnUse">
<stop stop-color="#F8F5B1"/>
<stop offset="0.345" stop-color="#C6A1FD"/>
<stop offset="0.675" stop-color="#89FDD6"/>
<stop offset="1" stop-color="#9294F0"/>
</linearGradient>
<linearGradient id="paint2_linear_440_8279" x1="1.09514" y1="6.92838e-05" x2="18.842" y2="0.460828" gradientUnits="userSpaceOnUse">
<stop stop-color="#F8F5B1"/>
<stop offset="0.345" stop-color="#C6A1FD"/>
<stop offset="0.675" stop-color="#89FDD6"/>
<stop offset="1" stop-color="#9294F0"/>
</linearGradient>
</defs>
</svg>
