<svg width="21" height="20" viewBox="0 0 21 20" fill="none" xmlns="http://www.w3.org/2000/svg">
<path d="M17.8336 15.5H10.8336C10.5576 15.5 10.3336 15.276 10.3336 15C10.3336 14.724 10.3336 5.276 10.3336 5C10.3336 4.724 10.5576 4.5 10.8336 4.5H17.8336C18.1096 4.5 18.3336 4.724 18.3336 5V15C18.3336 15.276 18.1096 15.5 17.8336 15.5Z" fill="#E5E7EB"/>
<path d="M12.8336 7.5H10.8336C10.5576 7.5 10.3336 7.276 10.3336 7C10.3336 6.724 10.5576 6.5 10.8336 6.5H12.8336C13.1096 6.5 13.3336 6.724 13.3336 7C13.3336 7.276 13.1096 7.5 12.8336 7.5Z" fill="#079455"/>
<path d="M12.8336 9.5H10.8336C10.5576 9.5 10.3336 9.276 10.3336 9C10.3336 8.724 10.5576 8.5 10.8336 8.5H12.8336C13.1096 8.5 13.3336 8.724 13.3336 9C13.3336 9.276 13.1096 9.5 12.8336 9.5Z" fill="#079455"/>
<path d="M12.8336 11.5H10.8336C10.5576 11.5 10.3336 11.276 10.3336 11C10.3336 10.724 10.5576 10.5 10.8336 10.5H12.8336C13.1096 10.5 13.3336 10.724 13.3336 11C13.3336 11.276 13.1096 11.5 12.8336 11.5Z" fill="#079455"/>
<path d="M12.8336 13.5H10.8336C10.5576 13.5 10.3336 13.276 10.3336 13C10.3336 12.724 10.5576 12.5 10.8336 12.5H12.8336C13.1096 12.5 13.3336 12.724 13.3336 13C13.3336 13.276 13.1096 13.5 12.8336 13.5Z" fill="#079455"/>
<path d="M15.8336 7.5H14.8336C14.5576 7.5 14.3336 7.276 14.3336 7C14.3336 6.724 14.5576 6.5 14.8336 6.5H15.8336C16.1096 6.5 16.3336 6.724 16.3336 7C16.3336 7.276 16.1096 7.5 15.8336 7.5Z" fill="#079455"/>
<path d="M15.8336 9.5H14.8336C14.5576 9.5 14.3336 9.276 14.3336 9C14.3336 8.724 14.5576 8.5 14.8336 8.5H15.8336C16.1096 8.5 16.3336 8.724 16.3336 9C16.3336 9.276 16.1096 9.5 15.8336 9.5Z" fill="#079455"/>
<path d="M15.8336 11.5H14.8336C14.5576 11.5 14.3336 11.276 14.3336 11C14.3336 10.724 14.5576 10.5 14.8336 10.5H15.8336C16.1096 10.5 16.3336 10.724 16.3336 11C16.3336 11.276 16.1096 11.5 15.8336 11.5Z" fill="#079455"/>
<path d="M15.8336 13.5H14.8336C14.5576 13.5 14.3336 13.276 14.3336 13C14.3336 12.724 14.5576 12.5 14.8336 12.5H15.8336C16.1096 12.5 16.3336 12.724 16.3336 13C16.3336 13.276 16.1096 13.5 15.8336 13.5Z" fill="#079455"/>
<path d="M11.1526 2.61567C11.0386 2.52067 10.8856 2.47967 10.7416 2.50967L2.74162 4.00967C2.50462 4.05367 2.33362 4.25967 2.33362 4.50067V15.5007C2.33362 15.7407 2.50462 15.9477 2.74162 15.9917L10.7416 17.4917C10.7716 17.4977 10.8026 17.5007 10.8336 17.5007C10.9496 17.5007 11.0626 17.4607 11.1526 17.3857C11.2676 17.2907 11.3336 17.1487 11.3336 17.0007V3.00067C11.3336 2.85167 11.2676 2.71067 11.1526 2.61567Z" fill="#079455"/>
<path d="M9.20964 11.6705L7.62864 9.86351L9.22764 7.80751C9.39764 7.58951 9.35764 7.27551 9.14064 7.10551C8.92364 6.93551 8.60964 6.97551 8.43864 7.19251L6.95764 9.09651L5.70964 7.67051C5.52664 7.46051 5.21064 7.44151 5.00464 7.62351C4.79664 7.80551 4.77564 8.12151 4.95764 8.32851L6.33264 9.90051L4.93864 11.6925C4.76864 11.9105 4.80864 12.2245 5.02564 12.3945C5.11764 12.4655 5.22664 12.4995 5.33364 12.4995C5.48264 12.4995 5.62964 12.4335 5.72864 12.3065L7.00364 10.6665L8.45764 12.3275C8.55664 12.4415 8.69464 12.4995 8.83364 12.4995C8.95064 12.4995 9.06764 12.4585 9.16264 12.3755C9.37064 12.1935 9.39164 11.8775 9.20964 11.6705Z" fill="#FAFAFA"/>
</svg>
