<svg width="20" height="20" viewBox="0 0 20 20" fill="none" xmlns="http://www.w3.org/2000/svg">
<path d="M5.00016 7.49996H10.0002M3.3335 4.16663H6.66683M5.00016 4.16663V13.3333C5.00016 13.5543 5.08796 13.7663 5.24424 13.9225C5.40052 14.0788 5.61248 14.1666 5.8335 14.1666H10.0002M10.0002 6.66663C10.0002 6.44561 10.088 6.23365 10.2442 6.07737C10.4005 5.92109 10.6125 5.83329 10.8335 5.83329H15.8335C16.0545 5.83329 16.2665 5.92109 16.4228 6.07737C16.579 6.23365 16.6668 6.44561 16.6668 6.66663V8.33329C16.6668 8.55431 16.579 8.76627 16.4228 8.92255C16.2665 9.07883 16.0545 9.16663 15.8335 9.16663H10.8335C10.6125 9.16663 10.4005 9.07883 10.2442 8.92255C10.088 8.76627 10.0002 8.55431 10.0002 8.33329V6.66663ZM10.0002 13.3333C10.0002 13.1123 10.088 12.9003 10.2442 12.744C10.4005 12.5878 10.6125 12.5 10.8335 12.5H15.8335C16.0545 12.5 16.2665 12.5878 16.4228 12.744C16.579 12.9003 16.6668 13.1123 16.6668 13.3333V15C16.6668 15.221 16.579 15.4329 16.4228 15.5892C16.2665 15.7455 16.0545 15.8333 15.8335 15.8333H10.8335C10.6125 15.8333 10.4005 15.7455 10.2442 15.5892C10.088 15.4329 10.0002 15.221 10.0002 15V13.3333Z" stroke="#384250" stroke-width="1.25" stroke-linecap="round" stroke-linejoin="round"/>
</svg>
